# xmcd CD database file
# Copyright (C) 1995-1998 Ti Kan
#
# Track frame offsets:
#	151
#	21761
#	37417
#	61049
#	77281
#	99696
#	116860
#	134771
#	154164
#	170140
#	186757
#	197626
#	212556
#	228575
#	256576
#	277745
#
# Disc length: 3982 seconds
#
# Revision: 1
# Processed by: cddbd v1.4PL0 Copyright (c) Steve Scherf et al.
# Submitted via: CDex 1.30
#
DISCID=de0f8c10
DTITLE=ZZ HILL and DENISE LASALLE - DOWN HOME BLUES
DYEAR=2002
DGENRE=Blues
TTITLE0=OPEN HOUSE AT MY HOUSE- ZZ HILL
TTITLE1=BUMP and GRIND-ZZ HILL
TTITLE2=DOWN HOME BLUES-ZZ HILL
TTITLE3=CHEATING IN THE NEXT ROOM-ZZ HILL
TTITLE4=EVERYBODY KNOWS ABOUT MY GOOD THING-ZZ HILL
TTITLE5=LOVEE ME-ZZ HILL
TTITLE6=THAT MEANS SO MUCH TO ME-ZZ HILL
TTITLE7=WHEN CAN WE DO THIS AGAIN-ZZ HILL
TTITLE8=RIGHT ARM FOR YOUR LOVE-ZZ HILL
TTITLE9=WHEN IT RAINS IT POURS-ZZ HILL
TTITLE10=WOMAN DON'T GO ASTRAY-ZZ HILL
TTITLE11=GIVIN' IT UP FOR YOUR LOVE-ZZ HILL
TTITLE12=I'M A BLUES MAN-ZZ HILL
TTITLE13=DOWN HOME BLUES(X-RATED)-DENISE LASALLE
TTITLE14=STTILL CALLED THE BLUES-DENISE LASALLE
TTITLE15=YOUR HUSBAND IS CHEATIN ON US-DENISE LASALLE
EXTD=YEAR: 2002  ID3G:   0
EXTT0=
EXTT1=
EXTT2=
EXTT3=
EXTT4=
EXTT5=
EXTT6=
EXTT7=
EXTT8=
EXTT9=
EXTT10=
EXTT11=
EXTT12=
EXTT13=
EXTT14=
EXTT15=
PLAYORDER=
